<svg width="19" height="19" viewBox="0 0 19 19" fill="none" xmlns="http://www.w3.org/2000/svg">
<path d="M3.23744 18.2374C2.55402 18.9209 1.44598 18.9209 0.762563 18.2374C0.0791457 17.554 0.0791457 16.446 0.762563 15.7626L3.23744 18.2374ZM15.7626 0.762562C16.446 0.0791454 17.554 0.0791454 18.2374 0.762562C18.9209 1.44598 18.9209 2.55402 18.2374 3.23744L15.7626 0.762562ZM18.2374 15.7626C18.9209 16.446 18.9209 17.554 18.2374 18.2374C17.554 18.9209 16.446 18.9209 15.7626 18.2374L18.2374 15.7626ZM0.762563 3.23744C0.0791457 2.55402 0.0791457 1.44598 0.762563 0.762562C1.44598 0.0791454 2.55402 0.0791454 3.23744 0.762562L0.762563 3.23744ZM0.762563 15.7626L15.7626 0.762562L18.2374 3.23744L3.23744 18.2374L0.762563 15.7626ZM15.7626 18.2374L0.762563 3.23744L3.23744 0.762562L18.2374 15.7626L15.7626 18.2374Z" fill="#6DEFB9"/>
</svg>
